<?xml version="1.0" encoding="UTF-8"?>
<!DOCTYPE svg PUBLIC "-//W3C//DTD SVG 1.1//EN" "http://www.w3.org/Graphics/SVG/1.1/DTD/svg11.dtd">
<!-- Creator: CorelDRAW 2019 (64-Bit) -->
<svg xmlns="http://www.w3.org/2000/svg" xml:space="preserve" width="1814px" height="480px" version="1.1" style="shape-rendering:geometricPrecision; text-rendering:geometricPrecision; image-rendering:optimizeQuality; fill-rule:evenodd; clip-rule:evenodd"
viewBox="0 0 1814 479.91"
 xmlns:xlink="http://www.w3.org/1999/xlink"
 xmlns:xodm="http://www.corel.com/coreldraw/odm/2003">
 <defs>
  <style type="text/css">
   <![CDATA[
    .fil1 {fill:#FEFEFE}
    .fil0 {fill:#D71D48}
   ]]>
  </style>
 </defs>
 <g id="Layer_x0020_1">
  <metadata id="CorelCorpID_0Corel-Layer"/>
  <g id="_2423629487232">
   <path class="fil0" d="M1754.9 417.38c-5.86,34.03 -28,62.53 -62.54,62.53l-1582.73 0c-31.56,0 -57.51,-24.04 -60.54,-54.8l-47.87 -289.91c-6.85,-41.54 15.28,-79.83 60.84,-79.83l1688.17 -55.34c37.51,-1.23 70.2,36.35 62.69,80.03l-58.02 337.32z"/>
   <path id="Logo_x0020_BukaLapak_x0020__x0028_CDR-2019_x0029__x0020_-_x0020_FileVector69.cdr" class="fil1" d="M1500.33 328.37l-0.01 10.75 -8.25 -1.27 -3.18 -0.59 -1.27 -0.59 -0.63 -0.59 -0.64 -1.78 -0.63 -84.14c-3.99,-44.63 -29.56,-59.85 -76.92,-59.85 -24.56,1.63 -49.54,3.79 -73.73,8.29 -0.2,0.1 0.63,35.3 0.63,48.59l1.91 0c20.98,-2.44 41.83,-3.51 62.93,-4.74 20.53,0 27.97,-1.29 27.97,16.59 -14.15,1.2 -28.56,1.38 -42.59,3.56 -35.4,4.12 -62.02,15.66 -65.47,57.48l0 8.29c1.17,15.33 7.26,40.13 24.15,48l204.04 0 8.91 -0.59 0 -61.63 8.26 0 40.68 61.63 0.64 0.59 64.2 0 -55.94 -90.07 0 -0.59 61.66 -88.88 -64.84 0 -47.67 63.99 -0.64 0.59 -6.35 0.6 0 -129.18 -56.58 0 -0.64 195.54zm-1147.86 -54.55c0.43,40.65 25.06,77.01 64.08,80.01l8.24 0c28.66,-1.84 68.94,-18.23 94.53,-30.55l0.63 -0.61 0 -167.53 -56.46 0 -0.63 140c-14.39,4.62 -46.79,15.88 -52.02,-4.28 -0.95,-4.54 -1.51,-8.81 -1.91,-13.45 -1.4,-40.73 -0.63,-81.53 -0.63,-122.27l-57.1 0 1.27 118.68zm-210.39 102.41l111.96 0 8.22 -0.59 6.96 -0.59c41.99,-5.62 68.16,-36.21 70.98,-75.75l0 -7.7c-1.89,-24.71 -10.88,-35.17 -26.83,-50.11l0.64 -0.6c7.63,-4.87 16.02,-23.85 14.67,-31.76l0 -16c-4.05,-37.9 -33.94,-55.26 -76.54,-59.25l-110.06 0 0 242.35zm113.86 -148.14l-3.8 0.6 -5.06 0.59 -48.71 0.59 0 -47.42 49.34 0.61c12.42,1.45 18.76,2.33 22.77,13.63l0 14.22c-2.39,8.96 -4.27,14.78 -14.54,17.18zm1.26 97.77l-7.59 0.6 -51.24 0.59 0 -48.59 24.04 0 26.57 0 6.32 0.59c14.2,2.22 19.79,6.94 22.14,20.15l0 4.15c-1.91,12.55 -5.59,20.23 -20.24,22.51zm624.73 50.37l160.5 0 0 -32c12.55,0 26.86,-5.2 38.69,-8.89l0.64 0 0.63 0.6c6.53,6.09 26.1,8.66 34.89,9.48l20.94 0 0 30.81 56.45 0 0.04 -57.57 5.67 1.28 8.88 0.59 24.74 0c46.24,-3.6 72.16,-28.7 76.76,-71.7l0.63 -5.33 0 -32.59 -0.63 -5.34c-4.2,-39.22 -18.46,-64.99 -61.53,-71.69l-27.28 0c-27.96,3.73 -55.79,8.12 -83.73,11.85l-0.64 151.69c-3.68,-0.31 -9.31,0.19 -12.05,-2.37l-0.64 -0.59 -0.63 -81.18 -0.63 -7.71c-3.6,-33.56 -20.66,-50.22 -55.83,-55.69l-8.88 -0.6 -13.95 0 -12.06 0.6c-21.16,2.19 -42.53,3.8 -63.43,7.7l0 47.99 3.8 0c21.81,-1.27 43.5,-3.25 65.34,-4.14l17.76 0c6.4,1.19 8.86,3.44 10.15,9.48l0 7.11c-15,1.4 -30.02,2.28 -45.04,3.55 -33.88,3.96 -54.8,16.58 -61.53,48l-0.63 5.33 0 16 0.63 5.93c3.01,14.04 7.65,24.93 18.4,34.96l0.63 0.59 -39.33 0.6 0 -199.1 -0.63 -0.59 -57.1 0c-0.21,57.01 -0.12,115.08 -0.05,171.94 -5.29,-0.37 -12.08,0.6 -12.13,-5.68l-0.61 -79.02 -0.64 -10.07c-4.76,-31.15 -22.31,-48.27 -55.82,-52.74 -9.77,-0.91 -19.4,-0.65 -29.18,0 -19.63,1.15 -39.58,2.9 -58.99,5.93l-1.27 0.59 -0.64 0.59c-4.56,12.79 -10.67,25.16 -15.22,37.92l0 1.78 -53.92 0 -48.84 65.03 -6.35 0.15 0 -136.87 -55.82 0 0 242.35 55.82 0 0 -53.33 5.73 0 38.04 52.74 0.63 0.59 64.07 0 0 -1.78 -0.63 -0.59 -49.48 -78.81 0 -1.19 53.92 -76.44 0.64 -0.59 1.26 -0.59c28.81,-5.38 59.64,-5.93 88.81,-5.93 6.66,1.56 8.49,3.26 10.15,9.48l0.64 7.71c-17.62,0 -35.83,1.82 -53.29,4.15l-2.54 0.59c-26.65,4.15 -45.37,18.14 -50.74,43.25l-0.64 2.37 -0.64 5.93c0,10.32 -0.86,25.63 4.45,35.55 6.37,17.87 21.14,29.68 41.23,34.37l4.44 0.59 24.74 0c16.24,-1.51 30.19,-5.86 45.67,-9.48l2.54 0 0.64 0.6 0.63 0.59c8.74,4.08 16.37,5.9 26.01,7.7l6.34 0.59 21.04 0c0,7.7 0,15.35 0,22.97zm371.1 -135.69c-2.7,20.2 -10.24,27.13 -28.54,29.03 -10.02,0 -19.88,-1.18 -29.82,-1.18l0 -79.41c7.75,0 20.13,-5.8 28.55,-7.11 25.47,0 28.74,19.67 30.45,42.08l0 10.66 -0.64 5.93zm-235.98 37.92c1.48,-6.88 3.32,-9.27 10.79,-10.67 13.02,-1.73 26.24,-2.19 39.33,-3.55l0 27.26 -1.91 0c-11.29,2.63 -22.65,4.43 -34.25,5.33l-6.34 0c-5.41,-1.26 -6.59,-5.27 -7.62,-10.07l0 -8.3zm-206.91 20.88c-11.86,3.7 -27.01,5.33 -39.33,5.33 -6.08,-1.13 -7.68,-3.89 -8.88,-9.48 -0.66,-3.73 -0.66,-6.34 0,-10.07 2.12,-7.93 6.17,-8.76 14.59,-10.07 11.22,-0.75 22.41,-1.67 33.62,-2.37l1.91 -0.6 0 4.15 0 8.89 0 14.22 -1.91 0zm568.15 19.55c2.16,-8.04 6.14,-9.08 14.62,-10.67 11.8,-0.84 24.71,-0.81 36.24,-2.96l0 27.26c-9.12,0 -19.78,3.76 -29.24,4.74l-8.27 0.59c-3.88,0 -6.29,0.24 -9.53,-1.77 -4.34,-4.05 -3.82,-12.27 -3.82,-17.19z"/>
  </g>
 </g>
</svg>
